<svg xmlns="http://www.w3.org/2000/svg" viewBox="0 0 230 230">
  <g fill="none" stroke="#2b2a20" stroke-linecap="round" stroke-linejoin="round">
    <path d="M111 215c12-57 11-109 1-154" stroke-width="11"/>
    <path d="M79 218c20-14 51-17 75 0" fill="#bd8a4d" stroke-width="4"/>
    <path d="M113 124c-33 27-57 47-91 62M115 118c35 22 61 40 92 52M111 132c-12 28-22 54-37 75M119 134c15 28 27 52 44 73M116 119c-12 16-25 30-41 43M116 118c14 14 29 26 48 37" stroke="#6f482a" stroke-width="5"/>
    <path d="M114 9c-27-3-42 10-52 27-28-4-50 15-51 41-24 11-26 42-8 59-9 28 14 56 43 52 18 29 58 32 79 7 27 13 62-4 68-35 30-5 46-38 30-64 12-30-12-61-45-61-13-20-36-29-64-26z" fill="#9ed063" stroke-width="4"/>
    <path d="M66 51c20 7 39 3 55-11M116 37c20 11 41 12 63 2M34 100c20 9 41 7 60-5M91 86c20 10 43 11 65 1M143 91c19 9 38 9 58 0M52 144c22 10 45 8 67-4M120 147c23 11 48 11 73-1M78 176c19 9 39 8 58-3" stroke="#4f793c" stroke-width="5"/>
    <path d="M28 128c33 13 77 10 112-9 29 18 58 21 87 10" stroke="#3f8c47" stroke-width="11" opacity=".48"/>
  </g>
</svg>
